Coordinates
version=1
nRows=21
nColumns=22
inDegrees=yes

Units are S.I. units (second, meters, Newtons, ...)
If the header above contains a line with 'inDegrees', this indicates whether rotational values are in degrees (yes) or radians (no).

endheader
time	pelvis_tilt	pelvis_list	pelvis_rotation	pelvis_tx	pelvis_ty	pelvis_tz	hip_flexion_r	hip_adduction_r	hip_rotation_r	knee_angle_r	ankle_angle_r	subtalar_angle_r	hip_flexion_l	hip_adduction_l	hip_rotation_l	knee_angle_l	ankle_angle_l	subtalar_angle_l	lumbar_extension	lumbar_bending	lumbar_rotation
      4.30000000	      3.77948186	      9.17759882	    170.89574807	      0.40777457	      0.95994931	     -0.59588627	      7.62715479	      5.79226259	     -7.89668569	    -21.14459425	     12.55725051	      6.75063170	     28.04908450	     -3.83671649	      5.16204534	    -56.52450307	      9.17470784	     -0.30484486	     -1.55526216	      6.75492698	     -0.01057422
      4.31000000	      3.66861805	      9.16799213	    171.23867419	      0.39999974	      0.95997636	     -0.59781950	      6.60319853	      5.85837869	     -8.12232012	    -20.46668616	     12.82111642	      6.76540234	     28.81664233	     -3.88129985	      4.59704920	    -54.80273540	      9.32619022	     -0.36158223	     -1.65273450	      6.71547514	      0.26352234
      4.32000000	      3.56369649	      9.17485487	    171.57271996	      0.39218486	      0.95984313	     -0.59967772	      5.58314176	      5.94843732	     -8.33034023	    -19.79062317	     13.08095290	      6.77220047	     29.53211825	     -3.98313600	      4.00752020	    -52.99337090	      9.41071497	     -0.51046279	     -1.74265401	      6.69113306	      0.49892778
      4.33000000	      3.46866200	      9.19367024	    171.89521788	      0.38433266	      0.95954886	     -0.60144856	      4.57610617	      6.05568128	     -8.52346688	    -19.12406635	     13.34287897	      6.77691942	     30.19297088	     -4.11877896	      3.42309065	    -51.09309254	      9.40718708	     -0.71970380	     -1.82345861	      6.67655974	      0.72313669
      4.34000000	      3.38635390	      9.21904691	    172.20229026	      0.37643742	      0.95908648	     -0.60312773	      3.59193324	      6.17252571	     -8.70051902	    -18.48006303	     13.61332854	      6.78409420	     30.79876135	     -4.27659314	      2.84977097	    -49.10338719	      9.31810902	     -0.95450678	     -1.89254765	      6.66660641	      0.93691374
      4.35000000	      3.31908460	      9.24920584	    172.48939726	      0.36849648	      0.95844824	     -0.60471399	      2.63884820	      6.29471576	     -8.85865299	    -17.86948052	     13.89917117	      6.79803121	     31.34840555	     -4.44938067	      2.29467398	    -47.02676988	      9.14820400	     -1.18267241	     -1.94873113	      6.65973779	      1.14050988
      4.36000000	      3.27059704	      9.28316167	    172.75220502	      0.36051025	      0.95763075	     -0.60621276	      1.72534489	      6.41919349	     -8.99452588	    -17.30051505	     14.19674229	      6.81904231	     31.84538588	     -4.63478653	      1.76397496	    -44.87040020	      8.89301266	     -1.36424136	     -1.98803369	      6.65479466	      1.33281250
      4.37000000	      3.23348272	      9.32328728	    172.98725278	      0.35247171	      0.95664489	     -0.60762825	      0.84818736	      6.54552140	     -9.11002609	    -16.78313349	     14.51700766	      6.84971136	     32.27837966	     -4.83430713	      1.26032156	    -42.63887896	      8.56944426	     -1.51802602	     -2.01844669	      6.65389849	      1.52258634
      4.38000000	      3.21704635	      9.37123607	    173.19081944	      0.34438690	      0.95549375	     -0.60897839	      0.02119542	      6.67528920	     -9.20613219	    -16.32440348	     14.83672079	      6.88247904	     32.66128303	     -5.05384759	      0.78587271	    -40.34695967	      8.16716016	     -1.63377556	     -2.03108842	      6.65695306	      1.71355623
      4.39000000	      3.20101420	      9.43497712	    173.36441997	      0.33624428	      0.95421181	     -0.61027498	     -0.77434249	      6.81431380	     -9.26856560	    -15.93478523	     15.18579223	      6.92637561	     32.96925456	     -5.29967728	      0.35349795	    -38.00257366	      7.73115289	     -1.79443346	     -2.04869825	      6.66842164	      1.90517522
      4.40000000	      3.20635756	      9.52468131	    173.51931773	      0.32802167	      0.95278702	     -0.61151433	     -1.52234620	      6.97331612	     -9.33056142	    -15.60429451	     15.51375199	      7.00203229	     33.24594243	     -5.59034091	     -0.05978259	    -35.64783047	      7.24587276	     -2.09269536	     -2.04380122	      6.70290483	      2.08198110
      4.41000000	      3.22226655	      9.61870634	    173.62775235	      0.31970883	      0.95126619	     -0.61273910	     -2.22246363	      7.12773615	     -9.35616809	    -15.35349448	     15.82091418	      7.01009718	     33.47544247	     -5.92702045	     -0.50490705	    -33.29564174	      6.79547176	     -2.25411520	     -2.02827366	      6.73082676	      2.29342283
      4.42000000	      3.21901994	      9.75619571	    173.72356464	      0.31130387	      0.94967467	     -0.61390233	     -2.91107609	      7.31546725	     -9.34684526	    -15.18197404	     16.13788954	      7.04910800	     33.63838670	     -6.32635958	     -0.95047002	    -30.97353109	      6.41147666	     -2.65541946	     -2.03999686	      6.79746389	      2.47576743
      4.43000000	      3.24453401	      9.92090111	    173.80485532	      0.30277933	      0.94797133	     -0.61503494	     -3.54955455	      7.52697055	     -9.33197541	    -15.06329511	     16.43540017	      7.10326548	     33.81538582	     -6.78765335	     -1.45725111	    -28.74411171	      6.09437536	     -3.17237584	     -2.01455085	      6.88274715	      2.63731809
      4.44000000	      3.27636273	     10.10476213	    173.83525647	      0.29411423	      0.94621379	     -0.61616685	     -4.16339874	      7.74707100	     -9.27104887	    -14.99608191	     16.70330902	      7.14562164	     33.98628385	     -7.32627548	     -2.10967082	    -26.64621152	      5.92875665	     -3.60749100	     -1.98090164	      6.97760972	      2.84709230
      4.45000000	      3.30135351	     10.29534184	    173.86976602	      0.28531247	      0.94442789	     -0.61720253	     -4.75631618	      7.96105712	     -9.20455500	    -14.99196588	     16.95729283	      7.23195263	     34.14396328	     -7.88164824	     -2.84694064	    -24.69267753	      5.83162319	     -4.24406088	     -1.94888959	      7.06836466	      2.98656648
      4.46000000	      3.32355486	     10.48611530	    173.84670513	      0.27636254	      0.94264398	     -0.61820496	     -5.31960817	      8.15530128	     -9.07852403	    -15.06363229	     17.17972263	      7.31421754	     34.30103731	     -8.48355580	     -3.76140564	    -22.94714637	      5.90627277	     -4.73620029	     -1.92048292	      7.15041272	      3.16212702
      4.47000000	      3.35781851	     10.67350954	    173.80269651	      0.26727173	      0.94086273	     -0.61909392	     -5.85366016	      8.33052927	     -8.90930744	    -15.17564413	     17.37266640	      7.41953090	     34.48042036	     -9.08854129	     -4.76088075	    -21.43153411	      6.04963224	     -5.17475995	     -1.87602699	      7.22598884	      3.33522387
      4.48000000	      3.35489801	     10.83509651	    173.74686246	      0.25796509	      0.93916031	     -0.61983653	     -6.38898538	      8.44311325	     -8.76974864	    -15.36978612	     17.52563892	      7.61320503	     34.61458236	     -9.65925392	     -5.81390715	    -20.16060701	      6.29732610	     -5.69636704	     -1.85998805	      7.26391222	      3.52341955
      4.49000000	      3.35066275	     10.97683530	    173.67609822	      0.24849391	      0.93751351	     -0.62042139	     -6.89808012	      8.51156087	     -8.57294056	    -15.62472272	     17.64699773	      7.85346115	     34.74998532	    -10.19682623	     -6.86311946	    -19.16537487	      6.59211840	     -6.08693526	     -1.83984151	      7.27982977	      3.68717181
      4.50000000	      3.32573251	     11.08771601	    173.59978844	      0.23880852	      0.93596396	     -0.62082346	     -7.39992939	      8.51713808	     -8.35695300	    -15.94250536	     17.70730403	      8.15748553	     34.85530354	    -10.68113184	     -7.87010546	    -18.45562799	      6.89549287	     -6.40382348	     -1.82752551	      7.26027948	      3.84592725
